<mxfile host="app.diagrams.net" modified="2024-04-16T23:24:45.443Z" agent="Mozilla/5.0 (Windows NT 10.0; Win64; x64; rv:124.0) Gecko/20100101 Firefox/124.0" etag="e9LBnV2SAbauGwNCdaKL" version="24.2.5" type="github">
  <diagram name="Página-1" id="d8SkmouKcEaHcaP6Umkt">
    <mxGraphModel dx="1434" dy="746" grid="1" gridSize="10" guides="1" tooltips="1" connect="1" arrows="1" fold="1" page="1" pageScale="1" pageWidth="827" pageHeight="1169" math="0" shadow="0">
      <root>
        <mxCell id="0" />
        <mxCell id="1" parent="0" />
        <mxCell id="9Ti5IZU4iSi-6DuWkqP7-7" value="" style="edgeStyle=orthogonalEdgeStyle;rounded=0;orthogonalLoop=1;jettySize=auto;html=1;" parent="1" edge="1">
          <mxGeometry relative="1" as="geometry">
            <mxPoint x="504" y="800.0526315789473" as="sourcePoint" />
            <mxPoint x="424" y="800" as="targetPoint" />
          </mxGeometry>
        </mxCell>
        <mxCell id="9Ti5IZU4iSi-6DuWkqP7-5" value="&lt;div&gt;HA&lt;/div&gt;" style="text;html=1;align=center;verticalAlign=middle;resizable=0;points=[];autosize=1;strokeColor=none;fillColor=none;" parent="1" vertex="1">
          <mxGeometry x="558" y="815" width="40" height="30" as="geometry" />
        </mxCell>
        <mxCell id="9Ti5IZU4iSi-6DuWkqP7-9" value="&lt;div&gt;DMZ&lt;/div&gt;&lt;div&gt;&lt;br&gt;&lt;/div&gt;" style="text;html=1;align=center;verticalAlign=middle;resizable=0;points=[];autosize=1;strokeColor=none;fillColor=none;" parent="1" vertex="1">
          <mxGeometry x="454" y="800" width="50" height="40" as="geometry" />
        </mxCell>
        <mxCell id="9Ti5IZU4iSi-6DuWkqP7-19" value="" style="edgeStyle=orthogonalEdgeStyle;rounded=0;orthogonalLoop=1;jettySize=auto;html=1;" parent="1" source="9Ti5IZU4iSi-6DuWkqP7-11" target="9Ti5IZU4iSi-6DuWkqP7-18" edge="1">
          <mxGeometry relative="1" as="geometry" />
        </mxCell>
        <mxCell id="9Ti5IZU4iSi-6DuWkqP7-34" value="" style="edgeStyle=orthogonalEdgeStyle;rounded=0;orthogonalLoop=1;jettySize=auto;html=1;" parent="1" source="9Ti5IZU4iSi-6DuWkqP7-11" target="9Ti5IZU4iSi-6DuWkqP7-33" edge="1">
          <mxGeometry relative="1" as="geometry" />
        </mxCell>
        <mxCell id="9Ti5IZU4iSi-6DuWkqP7-36" value="" style="edgeStyle=orthogonalEdgeStyle;rounded=0;orthogonalLoop=1;jettySize=auto;html=1;" parent="1" source="9Ti5IZU4iSi-6DuWkqP7-11" target="9Ti5IZU4iSi-6DuWkqP7-35" edge="1">
          <mxGeometry relative="1" as="geometry" />
        </mxCell>
        <mxCell id="9Ti5IZU4iSi-6DuWkqP7-11" value="SWITCH" style="shape=process;whiteSpace=wrap;html=1;backgroundOutline=1;" parent="1" vertex="1">
          <mxGeometry x="384" y="788.75" width="70" height="27.5" as="geometry" />
        </mxCell>
        <mxCell id="9Ti5IZU4iSi-6DuWkqP7-17" value="" style="edgeStyle=orthogonalEdgeStyle;rounded=0;orthogonalLoop=1;jettySize=auto;html=1;" parent="1" source="9Ti5IZU4iSi-6DuWkqP7-12" target="9Ti5IZU4iSi-6DuWkqP7-16" edge="1">
          <mxGeometry relative="1" as="geometry" />
        </mxCell>
        <mxCell id="9Ti5IZU4iSi-6DuWkqP7-40" value="" style="edgeStyle=orthogonalEdgeStyle;rounded=0;orthogonalLoop=1;jettySize=auto;html=1;" parent="1" source="9Ti5IZU4iSi-6DuWkqP7-12" target="9Ti5IZU4iSi-6DuWkqP7-39" edge="1">
          <mxGeometry relative="1" as="geometry" />
        </mxCell>
        <mxCell id="9Ti5IZU4iSi-6DuWkqP7-12" value="&lt;div&gt;Firewall Local&lt;/div&gt;&lt;div&gt;01&lt;/div&gt;" style="rounded=0;whiteSpace=wrap;html=1;" parent="1" vertex="1">
          <mxGeometry x="504" y="785" width="120" height="35" as="geometry" />
        </mxCell>
        <mxCell id="9Ti5IZU4iSi-6DuWkqP7-16" value="&lt;div&gt;Firewall Local&lt;/div&gt;&lt;div&gt;02&lt;/div&gt;" style="rounded=0;whiteSpace=wrap;html=1;" parent="1" vertex="1">
          <mxGeometry x="504" y="850" width="120" height="35" as="geometry" />
        </mxCell>
        <mxCell id="9Ti5IZU4iSi-6DuWkqP7-18" value="AD01" style="rounded=1;whiteSpace=wrap;html=1;" parent="1" vertex="1">
          <mxGeometry x="164" y="771.25" width="120" height="60" as="geometry" />
        </mxCell>
        <mxCell id="9Ti5IZU4iSi-6DuWkqP7-22" value="&lt;div&gt;AD02&lt;/div&gt;" style="whiteSpace=wrap;html=1;rounded=1;" parent="1" vertex="1">
          <mxGeometry x="44" y="771.25" width="120" height="60" as="geometry" />
        </mxCell>
        <mxCell id="9Ti5IZU4iSi-6DuWkqP7-24" value="&lt;div&gt;Replicação ADDC&lt;/div&gt;" style="text;html=1;align=center;verticalAlign=middle;resizable=0;points=[];autosize=1;strokeColor=none;fillColor=none;" parent="1" vertex="1">
          <mxGeometry x="104" y="838.75" width="120" height="30" as="geometry" />
        </mxCell>
        <mxCell id="9Ti5IZU4iSi-6DuWkqP7-33" value="&lt;div&gt;PrintServer&lt;/div&gt;" style="rounded=1;whiteSpace=wrap;html=1;" parent="1" vertex="1">
          <mxGeometry x="314" y="850" width="120" height="60" as="geometry" />
        </mxCell>
        <mxCell id="9Ti5IZU4iSi-6DuWkqP7-35" value="&lt;div&gt;FileServer&lt;/div&gt;" style="rounded=1;whiteSpace=wrap;html=1;" parent="1" vertex="1">
          <mxGeometry x="314" y="700" width="120" height="60" as="geometry" />
        </mxCell>
        <mxCell id="9Ti5IZU4iSi-6DuWkqP7-42" value="" style="edgeStyle=orthogonalEdgeStyle;rounded=0;orthogonalLoop=1;jettySize=auto;html=1;" parent="1" source="9Ti5IZU4iSi-6DuWkqP7-39" target="9Ti5IZU4iSi-6DuWkqP7-41" edge="1">
          <mxGeometry relative="1" as="geometry" />
        </mxCell>
        <mxCell id="9Ti5IZU4iSi-6DuWkqP7-39" value="SWITCH" style="shape=process;whiteSpace=wrap;html=1;backgroundOutline=1;rounded=0;" parent="1" vertex="1">
          <mxGeometry x="634" y="790" width="70" height="30" as="geometry" />
        </mxCell>
        <mxCell id="9Ti5IZU4iSi-6DuWkqP7-41" value="AP WI-FI" style="shape=process;whiteSpace=wrap;html=1;backgroundOutline=1;rounded=0;" parent="1" vertex="1">
          <mxGeometry x="713" y="789.75" width="70" height="30" as="geometry" />
        </mxCell>
        <mxCell id="9Ti5IZU4iSi-6DuWkqP7-53" value="Actor" style="shape=umlActor;verticalLabelPosition=bottom;verticalAlign=top;html=1;outlineConnect=0;" parent="1" vertex="1">
          <mxGeometry x="694" y="680" width="30" height="60" as="geometry" />
        </mxCell>
        <mxCell id="9Ti5IZU4iSi-6DuWkqP7-55" value="" style="endArrow=none;dashed=1;html=1;dashPattern=1 3;strokeWidth=2;rounded=0;" parent="1" edge="1">
          <mxGeometry width="50" height="50" relative="1" as="geometry">
            <mxPoint x="663" y="790" as="sourcePoint" />
            <mxPoint x="713" y="740" as="targetPoint" />
          </mxGeometry>
        </mxCell>
        <mxCell id="9Ti5IZU4iSi-6DuWkqP7-56" value="" style="endArrow=none;dashed=1;html=1;dashPattern=1 3;strokeWidth=2;rounded=0;" parent="1" edge="1">
          <mxGeometry width="50" height="50" relative="1" as="geometry">
            <mxPoint x="753" y="790" as="sourcePoint" />
            <mxPoint x="713" y="740" as="targetPoint" />
          </mxGeometry>
        </mxCell>
        <mxCell id="9Ti5IZU4iSi-6DuWkqP7-59" value="" style="shape=flexArrow;endArrow=classic;startArrow=classic;html=1;rounded=0;width=3.1578947368421053;endSize=4.484210526315789;" parent="1" edge="1">
          <mxGeometry width="100" height="100" relative="1" as="geometry">
            <mxPoint x="164" y="771.25" as="sourcePoint" />
            <mxPoint x="160.58" y="570" as="targetPoint" />
          </mxGeometry>
        </mxCell>
        <mxCell id="9Ti5IZU4iSi-6DuWkqP7-60" value="&lt;div&gt;AZURE AD&lt;/div&gt;" style="ellipse;shape=cloud;whiteSpace=wrap;html=1;" parent="1" vertex="1">
          <mxGeometry x="69" y="470" width="190" height="100" as="geometry" />
        </mxCell>
        <mxCell id="9Ti5IZU4iSi-6DuWkqP7-63" value="Actor" style="shape=umlActor;verticalLabelPosition=bottom;verticalAlign=top;html=1;outlineConnect=0;" parent="1" vertex="1">
          <mxGeometry x="40" y="610" width="30" height="60" as="geometry" />
        </mxCell>
        <mxCell id="9Ti5IZU4iSi-6DuWkqP7-64" value="&lt;div&gt;Armazem&lt;/div&gt;" style="text;html=1;align=center;verticalAlign=middle;resizable=0;points=[];autosize=1;strokeColor=none;fillColor=none;" parent="1" vertex="1">
          <mxGeometry x="15" y="695" width="80" height="30" as="geometry" />
        </mxCell>
        <mxCell id="9Ti5IZU4iSi-6DuWkqP7-65" value="" style="curved=1;endArrow=classic;html=1;rounded=0;entryX=0.321;entryY=0.9;entryDx=0;entryDy=0;entryPerimeter=0;" parent="1" target="9Ti5IZU4iSi-6DuWkqP7-60" edge="1">
          <mxGeometry width="50" height="50" relative="1" as="geometry">
            <mxPoint x="60" y="635" as="sourcePoint" />
            <mxPoint x="110" y="585" as="targetPoint" />
            <Array as="points">
              <mxPoint x="110" y="635" />
              <mxPoint x="60" y="585" />
            </Array>
          </mxGeometry>
        </mxCell>
        <mxCell id="9Ti5IZU4iSi-6DuWkqP7-66" value="&lt;div&gt;SSO&lt;/div&gt;&lt;div&gt;&lt;br&gt;&lt;/div&gt;" style="text;html=1;align=center;verticalAlign=middle;resizable=0;points=[];autosize=1;strokeColor=none;fillColor=none;" parent="1" vertex="1">
          <mxGeometry x="70" y="585" width="50" height="40" as="geometry" />
        </mxCell>
        <mxCell id="9Ti5IZU4iSi-6DuWkqP7-68" value="" style="endArrow=none;dashed=1;html=1;dashPattern=1 3;strokeWidth=2;rounded=0;entryX=0.444;entryY=1.013;entryDx=0;entryDy=0;entryPerimeter=0;" parent="1" edge="1">
          <mxGeometry width="50" height="50" relative="1" as="geometry">
            <mxPoint x="558" y="785" as="sourcePoint" />
            <mxPoint x="557.2800000000002" y="570.78" as="targetPoint" />
          </mxGeometry>
        </mxCell>
        <mxCell id="9Ti5IZU4iSi-6DuWkqP7-74" value="" style="edgeStyle=orthogonalEdgeStyle;rounded=0;orthogonalLoop=1;jettySize=auto;html=1;" parent="1" edge="1">
          <mxGeometry relative="1" as="geometry">
            <mxPoint x="564.0526315789475" y="570" as="sourcePoint" />
            <mxPoint x="564" y="570" as="targetPoint" />
          </mxGeometry>
        </mxCell>
        <mxCell id="9Ti5IZU4iSi-6DuWkqP7-79" value="" style="endArrow=none;dashed=1;html=1;dashPattern=1 3;strokeWidth=2;rounded=0;" parent="1" edge="1">
          <mxGeometry width="50" height="50" relative="1" as="geometry">
            <mxPoint x="577.47" y="785" as="sourcePoint" />
            <mxPoint x="570" y="570" as="targetPoint" />
          </mxGeometry>
        </mxCell>
        <mxCell id="9Ti5IZU4iSi-6DuWkqP7-87" value="" style="edgeStyle=orthogonalEdgeStyle;rounded=0;orthogonalLoop=1;jettySize=auto;html=1;" parent="1" source="9Ti5IZU4iSi-6DuWkqP7-82" target="9Ti5IZU4iSi-6DuWkqP7-86" edge="1">
          <mxGeometry relative="1" as="geometry" />
        </mxCell>
        <mxCell id="9Ti5IZU4iSi-6DuWkqP7-82" value="&lt;div&gt;FW CLOUD&lt;/div&gt;" style="rounded=0;whiteSpace=wrap;html=1;" parent="1" vertex="1">
          <mxGeometry x="504" y="510" width="120" height="60" as="geometry" />
        </mxCell>
        <mxCell id="9Ti5IZU4iSi-6DuWkqP7-83" value="&lt;div&gt;&lt;font size=&quot;1&quot;&gt;VPN IPSEC (SITE-TO-SITE)&lt;/font&gt;&lt;/div&gt;&lt;div&gt;&lt;font size=&quot;1&quot;&gt;C/ REDUNDÂNCIA&lt;/font&gt;&lt;/div&gt;" style="text;html=1;align=center;verticalAlign=middle;resizable=0;points=[];autosize=1;strokeColor=none;fillColor=none;" parent="1" vertex="1">
          <mxGeometry x="569" y="620" width="160" height="40" as="geometry" />
        </mxCell>
        <mxCell id="9Ti5IZU4iSi-6DuWkqP7-89" value="" style="edgeStyle=orthogonalEdgeStyle;rounded=0;orthogonalLoop=1;jettySize=auto;html=1;" parent="1" source="9Ti5IZU4iSi-6DuWkqP7-86" target="9Ti5IZU4iSi-6DuWkqP7-88" edge="1">
          <mxGeometry relative="1" as="geometry" />
        </mxCell>
        <mxCell id="9Ti5IZU4iSi-6DuWkqP7-86" value="&lt;div&gt;WAF&lt;/div&gt;" style="shape=process;whiteSpace=wrap;html=1;backgroundOutline=1;rounded=0;" parent="1" vertex="1">
          <mxGeometry x="506" y="480" width="116" height="20" as="geometry" />
        </mxCell>
        <mxCell id="9Ti5IZU4iSi-6DuWkqP7-98" style="edgeStyle=orthogonalEdgeStyle;rounded=0;orthogonalLoop=1;jettySize=auto;html=1;exitX=0.4;exitY=0.1;exitDx=0;exitDy=0;exitPerimeter=0;" parent="1" source="9Ti5IZU4iSi-6DuWkqP7-88" edge="1">
          <mxGeometry relative="1" as="geometry">
            <mxPoint x="290" y="340" as="targetPoint" />
            <Array as="points">
              <mxPoint x="388" y="370" />
              <mxPoint x="340" y="370" />
            </Array>
          </mxGeometry>
        </mxCell>
        <mxCell id="9Ti5IZU4iSi-6DuWkqP7-100" style="edgeStyle=orthogonalEdgeStyle;rounded=0;orthogonalLoop=1;jettySize=auto;html=1;exitX=0.88;exitY=0.25;exitDx=0;exitDy=0;exitPerimeter=0;" parent="1" source="9Ti5IZU4iSi-6DuWkqP7-88" edge="1">
          <mxGeometry relative="1" as="geometry">
            <mxPoint x="540" y="340" as="targetPoint" />
            <Array as="points">
              <mxPoint x="446" y="370" />
              <mxPoint x="490" y="370" />
              <mxPoint x="490" y="340" />
            </Array>
          </mxGeometry>
        </mxCell>
        <mxCell id="9Ti5IZU4iSi-6DuWkqP7-103" value="" style="edgeStyle=orthogonalEdgeStyle;rounded=0;orthogonalLoop=1;jettySize=auto;html=1;exitX=0.625;exitY=0.2;exitDx=0;exitDy=0;exitPerimeter=0;" parent="1" source="9Ti5IZU4iSi-6DuWkqP7-88" target="9Ti5IZU4iSi-6DuWkqP7-102" edge="1">
          <mxGeometry relative="1" as="geometry">
            <Array as="points">
              <mxPoint x="400" y="416" />
              <mxPoint x="400" y="360" />
              <mxPoint x="420" y="360" />
            </Array>
          </mxGeometry>
        </mxCell>
        <mxCell id="9Ti5IZU4iSi-6DuWkqP7-88" value="&lt;div&gt;Web App&lt;/div&gt;&lt;div&gt;&lt;br&gt;&lt;/div&gt;" style="ellipse;shape=cloud;whiteSpace=wrap;html=1;rounded=0;" parent="1" vertex="1">
          <mxGeometry x="340" y="400" width="120" height="80" as="geometry" />
        </mxCell>
        <mxCell id="9Ti5IZU4iSi-6DuWkqP7-90" value="" style="endArrow=none;dashed=1;html=1;dashPattern=1 3;strokeWidth=2;rounded=0;" parent="1" source="9Ti5IZU4iSi-6DuWkqP7-60" edge="1">
          <mxGeometry width="50" height="50" relative="1" as="geometry">
            <mxPoint x="284" y="510" as="sourcePoint" />
            <mxPoint x="334" y="460" as="targetPoint" />
          </mxGeometry>
        </mxCell>
        <mxCell id="9Ti5IZU4iSi-6DuWkqP7-91" value="&lt;div&gt;SAML&lt;/div&gt;&lt;div&gt;&lt;br&gt;&lt;/div&gt;" style="text;html=1;align=center;verticalAlign=middle;resizable=0;points=[];autosize=1;strokeColor=none;fillColor=none;" parent="1" vertex="1">
          <mxGeometry x="265" y="483" width="50" height="40" as="geometry" />
        </mxCell>
        <mxCell id="9Ti5IZU4iSi-6DuWkqP7-99" value="&lt;div&gt;BD Região 01&lt;/div&gt;" style="shape=cylinder3;whiteSpace=wrap;html=1;boundedLbl=1;backgroundOutline=1;size=15;" parent="1" vertex="1">
          <mxGeometry x="230" y="300" width="60" height="80" as="geometry" />
        </mxCell>
        <mxCell id="9Ti5IZU4iSi-6DuWkqP7-101" value="&lt;div&gt;BD Região02&lt;/div&gt;" style="shape=cylinder3;whiteSpace=wrap;html=1;boundedLbl=1;backgroundOutline=1;size=15;" parent="1" vertex="1">
          <mxGeometry x="538" y="300" width="60" height="80" as="geometry" />
        </mxCell>
        <mxCell id="9Ti5IZU4iSi-6DuWkqP7-102" value="&lt;div&gt;Syslog&lt;/div&gt;" style="rhombus;whiteSpace=wrap;html=1;rounded=0;" parent="1" vertex="1">
          <mxGeometry x="380" y="230" width="80" height="80" as="geometry" />
        </mxCell>
        <mxCell id="9Ti5IZU4iSi-6DuWkqP7-105" value="" style="endArrow=none;dashed=1;html=1;dashPattern=1 3;strokeWidth=2;rounded=0;exitX=1;exitY=1;exitDx=0;exitDy=-15;exitPerimeter=0;" parent="1" source="9Ti5IZU4iSi-6DuWkqP7-99" edge="1">
          <mxGeometry width="50" height="50" relative="1" as="geometry">
            <mxPoint x="380" y="390" as="sourcePoint" />
            <mxPoint x="530" y="370" as="targetPoint" />
            <Array as="points">
              <mxPoint x="420" y="340" />
            </Array>
          </mxGeometry>
        </mxCell>
        <mxCell id="9Ti5IZU4iSi-6DuWkqP7-106" value="&lt;div&gt;replicaçãoBD&lt;/div&gt;" style="text;html=1;align=center;verticalAlign=middle;resizable=0;points=[];autosize=1;strokeColor=none;fillColor=none;" parent="1" vertex="1">
          <mxGeometry x="315" y="310" width="100" height="30" as="geometry" />
        </mxCell>
      </root>
    </mxGraphModel>
  </diagram>
</mxfile>
